<svg xmlns="http://www.w3.org/2000/svg" xmlns:xlink="http://www.w3.org/1999/xlink" viewBox="0 0 36 36">
<title>🏙️: cityscape (U+1F3D9 FE0F) - emojiall.com</title>
<style>svg{stroke:#edf2f6;animation:dashoffset 10s both infinite,fill-opacity 10s both infinite,stroke-opacity 10s both infinite;stroke-dasharray:500%;stroke-dashoffset:500%}@keyframes stroke-opacity{2%,25%{stroke-opacity:.75;stroke-width:2%}100%,75%{stroke-opacity:0;stroke-width:0}}@keyframes fill-opacity{10%,25%{fill-opacity:0}0%,100%,50%{fill-opacity:1}}@keyframes dashoffset{0%,2%{stroke-dashoffset:500%}100%{stroke-dashoffset:0%}}</style>
<path fill="#88C9F9" d="M32 0H4C1.791 0 0 1.791 0 4v22h36V4c0-2.209-1.791-4-4-4z"/>
<path fill="#66757F" d="M10 36V7l4-4h2l4 4v29zm23-25c0-1-1-1-1-1h-7s-1 0-1 1v25h9V11z"/>
<path fill="#292F33" d="M28 17c0-1-1-1-1-1h-8c-1 0-1 1-1 1v19h10V17zm-17 2H6v-5s0-1-1-1H0v19c0 2.209 1.791 4 4 4h8V20s0-1-1-1zm21 6c-1 0-1 1-1 1v10h1c2.209 0 4-1.791 4-4v-7h-4z"/>
<path d="M8 29h2v2H8zm0-8h2v2H8zm-2 4h2v2H6zM16 9h2v2h-2zm0 4h2v2h-2zm-2 4h2v2h-2zm10 1h2v2h-2zm-2 4h2v2h-2zm-2 6h2v2h-2zm9-16h2v2h-2zm0 4h2v2h-2z" fill="#FFCC4D"/>
<a xlink:href="https://www.emojiall.com/en/emoji/%F0%9F%8F%99%EF%B8%8F"><text x="36" y="34" font-size="1px" fill="#888da8" text-anchor="end" font-family="apple color emoji,segoe ui emoji,noto color emoji,android emoji,emojisymbols,emojione mozilla,twemoji mozilla,segoe ui symbol,Noto Color Emoji Compat,emoji,sans-serif">🏙️</text></a>
<a xlink:href="https://www.emojiall.com/"><text x="36" y="35" font-size="0.8px" fill="#888da8" text-anchor="end"><title>www.emojiall.com</title>emojiall.com</text></a>
</svg>